<svg width="102" height="102" viewBox="0 0 102 102" fill="none" xmlns="http://www.w3.org/2000/svg">
<g clip-path="url(#clip0_491_400)">
<path d="M25.761 43.7146V14.5709L51 29.1418V58.2855L25.761 43.7146Z" fill="#B475B3"/>
<path d="M25.761 14.5709L51 0L76.239 14.5709L51 29.1417" fill="#943993"/>
<path d="M51 29.1418L76.239 14.5709V43.7146L51 58.2855" fill="#FFF4FF"/>
<path d="M0.521973 87.4291V58.2854L25.761 72.8563V102L0.521973 87.4291Z" fill="#B475B3"/>
<path d="M0.521973 58.2855L25.761 43.7146L51 58.2855L25.761 72.8563" fill="#943993"/>
<path d="M25.761 72.8563L51 58.2854V87.4291L25.761 102" fill="#FFF4FF"/>
<path d="M51 87.4291V58.2854L76.239 72.8563V102L51 87.4291Z" fill="#B475B3"/>
<path d="M51 58.2855L76.239 43.7146L101.478 58.2855L76.239 72.8563" fill="#943993"/>
<path d="M76.239 72.8563L101.478 58.2854V87.4291L76.239 102" fill="#FFF4FF"/>
</g>
<defs>
<clipPath id="clip0_491_400">
<rect width="102" height="102" fill="white"/>
</clipPath>
</defs>
</svg>
